<?xml version="1.0" encoding="utf-8"?>
<!-- Generator: Adobe Illustrator 23.0.1, SVG Export Plug-In . SVG Version: 6.00 Build 0)  -->
<svg version="1.1" id="Layer_1" xmlns="http://www.w3.org/2000/svg" xmlns:xlink="http://www.w3.org/1999/xlink" x="0px" y="0px"
	 viewBox="0 0 471.2 471.7" style="enable-background:new 0 0 471.2 471.7;" xml:space="preserve">
<style type="text/css">
	.st0{fill:#FECA4C;}
	.st1{fill:#64A9DC;}
	.st2{fill:#66481C;}
	.st3{fill:#66481B;}
	.st4{fill:#FDCA4C;}
	.st5{fill:#65471B;}
	.st6{fill:#FDFDFD;}
</style>
<g>
	<path class="st0" d="M217.2,0c12,0,23.9,0,35.9,0c0.6,1,1.5,0.8,2.4,0.9c37.4,3.2,72.2,14.6,104.1,34.3c-16.9,5.4-33.7,11-50,18.2
		c-11.1,4.9-22.1,9.9-31.9,17c-7.1,5.1-7.3,7.8-1.7,14.5c2.8,3.4,6,6.5,9.1,9.7c-19.4,6.4-37.5,15.5-54.8,26.2
		c-0.3-0.2-0.6-0.5-0.8-0.7c2.3-7.7,5.8-14.8,9.7-21.8c7.2-13.3,16.2-25.3,26.3-36.5c7.2-8,3.6-19.8-6.5-22
		c-5.5-1.2-9.8,1.1-13.5,5.1c-11.1,12-20.6,25.1-28.5,39.4c-11.7,21-19.4,43.3-20,67.6c-0.2,6.6,1.8,11.9,8.1,14.5
		c6.2,2.6,11.2,0.2,15.8-4.2c25.3-24.3,55.8-38.9,89.4-47.6c11.6,7.9,23.3,15.7,35.4,22.9c-17.9,26.4-36.6,52.2-57.4,76.4
		c-43.5,50.5-93.4,93.7-149,130.5c-8.1-12.3-16.2-24.7-24.3-37c0.4-1.2,0.8-2.3,1.2-3.5c9.3-31.6,23.7-60.4,47-84.2
		c4.2-4.3,5.7-9.5,3.1-15.2c-2.6-5.6-7.3-7.8-13.4-7.7c-23,0.4-44.3,7.2-64.5,17.9c-16.1,8.5-30.9,18.8-44.1,31.4
		c-6.1,5.8-6.4,13.8-1.1,19.2c5.2,5.3,12.9,5.3,19-0.1c2.2-1.9,4.3-3.9,6.6-5.8c15.5-12.7,32.2-23.5,51.4-29.9
		c0.2,0.3,0.5,0.5,0.7,0.8c-0.8,1.4-1.6,2.9-2.5,4.3c-9.5,15.3-17.3,31.5-23,48.6c-2-1.9-3.9-3.9-5.9-5.8c-9.8-9.3-13-9-20.3,2.5
		c-7.6,11.9-13.1,24.9-18.5,37.9C45,331.7,40.6,346,35.9,360.2c-16.6-25.5-26.7-53.5-32.3-83.4c-1.4-7.6-1.4-15.4-3.6-22.9
		c0-12.3,0-24.6,0-36.8c1.7-2.7,1.3-5.9,1.6-8.8C7.8,156.7,28.5,111.8,64.1,74c36.1-38.3,80.2-61.8,132.1-70.9
		C203.1,2.1,210.3,2.2,217.2,0z"/>
	<path class="st1" d="M359.6,35.2c11.6-2.6,23.2-5.6,35.1-7.2c34.2-4.6,67.8,21.1,72.1,55.4c2.5,20-2.7,37.6-15.8,52.9
		c-0.4,0.5-0.7,1-1,1.5c-7.4,7.4-16.1,12.9-25.7,17c-15,4.8-30,4.9-44.9-0.5c-0.6-0.2-1.3-0.4-1.9-0.7c-10.8-5-21.6-10.1-31.9-16
		c-12.1-7.1-23.7-15-35.4-22.9c-8.3-6.7-16.7-13.4-25-20.1c-3-3.2-6.2-6.3-9.1-9.7c-5.7-6.8-5.4-9.4,1.7-14.5
		c9.8-7.1,20.9-12.1,31.9-17C325.9,46.2,342.8,40.7,359.6,35.2z"/>
	<path class="st1" d="M137.5,450.1c-10,8-21.1,13.4-33.9,15.5c-35.1,5.9-70.7-20.9-74.5-56.3c-1.4-13.4,1.6-26.2,4.4-39.1
		c0.7-3.3,1.5-6.6,2.2-9.8c4.7-14.2,9.1-28.5,14.8-42.4c5.4-13,11-25.9,18.5-37.9c7.3-11.5,10.5-11.8,20.3-2.5
		c2,1.9,3.9,3.8,5.9,5.8c6.6,8.1,13.1,16.1,19.7,24.2c8.1,12.3,16.2,24.7,24.3,37c5.4,10.7,11.1,21.2,15.8,32.2
		c0.4,1.1,0.8,2.2,1.2,3.4c4.6,14.9,4.1,29.7-0.9,44.4C151,434.2,145.2,442.8,137.5,450.1z"/>
	<path class="st2" d="M155,376.8c-4.7-11-10.4-21.6-15.8-32.2c55.5-36.8,105.4-80,149-130.5c20.8-24.2,39.5-50,57.4-76.4
		c10.4,5.9,21.1,11,31.9,16c-7.1,12.6-15.1,24.5-23.6,36.2c-31,42.2-66.6,80.2-105.1,115.5C219.7,331.9,189.2,356.8,155,376.8z"/>
	<path class="st3" d="M285.2,94.7c8.3,6.7,16.7,13.4,25,20.1c-33.6,8.8-64.1,23.3-89.4,47.6c-4.6,4.4-9.6,6.8-15.8,4.2
		c-6.4-2.7-8.3-7.9-8.1-14.5c0.7-24.3,8.4-46.6,20-67.6c7.9-14.3,17.5-27.4,28.5-39.4c3.7-4,8-6.3,13.5-5.1c10.1,2.2,13.7,14,6.5,22
		c-10.1,11.2-19,23.2-26.3,36.5c-3.8,7-7.3,14.1-9.7,21.8c0,0.4-0.1,0.7-0.1,1c0.3-0.1,0.6-0.2,0.9-0.3
		C247.6,110.1,265.7,101,285.2,94.7z"/>
	<path class="st3" d="M114.9,307.6c-6.6-8.1-13.1-16.1-19.7-24.2c5.7-17.1,13.5-33.3,23-48.6c0.9-1.4,1.7-2.9,2.5-4.3
		c0.1-0.3,0.2-0.6,0.3-0.9c-0.3,0-0.7,0.1-1,0.1c-19.2,6.4-35.8,17.2-51.4,29.9c-2.3,1.8-4.4,3.8-6.6,5.8c-6.1,5.4-13.8,5.5-19,0.1
		c-5.3-5.4-5-13.4,1.1-19.2c13.2-12.5,28-22.9,44.1-31.4c20.2-10.6,41.4-17.5,64.5-17.9c6.1-0.1,10.9,2.1,13.4,7.7
		c2.6,5.7,1.1,10.8-3.1,15.2c-23.3,23.8-37.7,52.6-47,84.2C115.7,305.3,115.3,306.4,114.9,307.6z"/>
	<path class="st4" d="M137.5,450.1c7.6-7.3,13.5-15.9,17.9-25.5c4.9,2.1,9.7,4.5,14.8,6.3c33.4,11.8,67.5,12.6,102,5.7
		c93.7-18.7,165.8-103.8,168.6-199.2c0.9-28.8-3.9-56.5-16.5-82.6c9.6-4.1,18.3-9.6,25.7-17c11.8,25.8,18.7,52.8,20.6,81.1
		c3.6,51.7-8,99.8-36.1,143.3C395.1,423,339.1,459,267.3,469.4C222.3,475.7,178.9,468.9,137.5,450.1z"/>
	<path class="st5" d="M424.3,154.8c12.6,26.1,17.3,53.8,16.5,82.6c-2.9,95.4-75,180.5-168.6,199.2c-34.5,6.9-68.6,6.1-102-5.7
		c-5-1.8-9.9-4.2-14.8-6.3c5-14.7,5.5-29.5,0.9-44.4c24.6,4.3,48.5,1.2,71.9-6.9c29.6-10.3,55-27.4,77.8-48.5
		c28.1-26,51.6-55.4,65.4-91.6c9.7-25.5,13.8-51.7,8.1-78.9C394.3,159.6,409.3,159.5,424.3,154.8z"/>
	<path class="st6" d="M379.4,154.3c5.7,27.2,1.6,53.4-8.1,78.9c-13.8,36.2-37.2,65.6-65.4,91.6c-22.8,21.1-48.2,38.2-77.8,48.5
		c-23.4,8.1-47.3,11.2-71.9,6.9c-0.4-1.1-0.8-2.2-1.2-3.4c34.2-20,64.7-44.9,93.8-71.5C287.3,270,323,232,353.9,189.8
		c8.5-11.6,16.5-23.6,23.6-36.2C378.1,153.9,378.8,154.1,379.4,154.3z"/>
	<path class="st0" d="M230.3,120.9c-0.3,0.1-0.6,0.2-0.9,0.3c0-0.3,0.1-0.7,0.1-1C229.8,120.4,230,120.7,230.3,120.9z"/>
	<path class="st0" d="M120,229.7c0.3,0,0.7-0.1,1-0.1c-0.1,0.3-0.2,0.6-0.3,0.9C120.5,230.2,120.3,230,120,229.7z"/>
</g>
</svg>
